<?xml version="1.0" encoding="UTF-8" standalone="no"?>
<!-- Created with Inkscape (http://www.inkscape.org/) -->

<svg
   width="180.56717pt"
   height="88.440155pt"
   viewBox="0 0 63.700084 31.199721"
   version="1.1"
   id="svg1"
   inkscape:version="1.4.3 (0d15f75042, 2025-12-25)"
   sodipodi:docname="elk.svg"
   xml:space="preserve"
   xmlns:inkscape="http://www.inkscape.org/namespaces/inkscape"
   xmlns:sodipodi="http://sodipodi.sourceforge.net/DTD/sodipodi-0.dtd"
   xmlns="http://www.w3.org/2000/svg"
   xmlns:svg="http://www.w3.org/2000/svg"><sodipodi:namedview
     id="namedview1"
     pagecolor="#ffffff"
     bordercolor="#000000"
     borderopacity="0.25"
     inkscape:showpageshadow="2"
     inkscape:pageopacity="0.0"
     inkscape:pagecheckerboard="0"
     inkscape:deskcolor="#d1d1d1"
     inkscape:document-units="mm"
     inkscape:zoom="3.2137179"
     inkscape:cx="98.950813"
     inkscape:cy="70.479117"
     inkscape:window-width="1798"
     inkscape:window-height="1105"
     inkscape:window-x="0"
     inkscape:window-y="0"
     inkscape:window-maximized="1"
     inkscape:current-layer="layer2"
     showgrid="false" /><defs
     id="defs1" /><g
     inkscape:groupmode="layer"
     id="layer2"
     inkscape:label="Layer 2"
     style="display:inline;opacity:1"
     transform="translate(-96.399764,-99.4001)"><path
       id="rect2"
       style="fill:#612100;fill-opacity:1;stroke:#ae5b34;stroke-width:1.2;stroke-linecap:square;stroke-linejoin:miter;stroke-dasharray:none;stroke-opacity:1;paint-order:normal"
       d="m 96.999764,100.0001 v 1.49965 c 2.268645,0.0255 2.991285,1.50164 3.000336,2.94607 v 8.554 2.50011 10.05261 c -0.0086,1.44483 -0.731038,2.92214 -3.000336,2.94763 v 1.49965 h 3.000336 7.00009 9.9999 V 127 123.00024 h -1.50016 c 0,0 -0.0577,3.99961 -2.50011,3.99976 h -5.99963 v -11.50007 h 2.15232 c 2.31322,0.063 2.84737,2.99981 2.84737,2.99981 h 0.99994 V 115.49993 115.22501 110 h -0.99994 c 0,0 -0.53415,2.93679 -2.84737,2.99982 h -2.15232 V 102.5002 h 6.01358 c 2.42903,0.007 2.48616,3.99976 2.48616,3.99976 h 1.50016 v -3.99976 -2.5001 h -9.9999 -7.00009 z" /><path
       id="rect2-3"
       style="opacity:1;fill:#612100;fill-opacity:1;stroke:#ae5b34;stroke-width:1.2;stroke-linecap:square;stroke-linejoin:miter;stroke-dasharray:none;stroke-opacity:1;paint-order:normal"
       d="m 119.49976,100.0001 v 29.99972 h 7.00009 9.49968 v -3.50005 -3.99975 h -0.93741 c 0,0 -0.0357,3.9996 -1.56218,3.99975 h -7.00009 v -22.0524 c 0.009,-1.44483 0.73052,-2.92213 2.99982,-2.94762 v -1.49965 h -2.99982 z" /><path
       id="rect2-3-6"
       style="opacity:1;fill:#612100;fill-opacity:1;stroke:#ae5b34;stroke-width:1.2;stroke-linecap:square;stroke-linejoin:miter;stroke-dasharray:none;stroke-opacity:1;paint-order:normal"
       d="m 135.49976,100.0001 v 1.49965 c 2.26802,0.0255 2.99039,1.50099 2.99982,2.94504 v 25.55503 h 7.00009 3.00033 v -1.49965 c -2.26929,-0.0255 -2.99169,-1.5028 -3.00033,-2.94763 v -9.09143 l 5.43481,10.66291 c 0.36519,0.71646 0.034,1.35965 -1.43454,1.37615 v 1.49965 h 2.99982 4.00027 1.99988 0.99994 v -1.49965 c -1.32603,-0.0149 -2.23955,-0.88166 -2.48202,-1.23352 -0.19204,-0.27868 -5.80965,-10.68163 -8.13801,-14.99702 l 4.92477,-7.49515 c 1.1684,-1.77821 1.89767,-3.24893 4.19457,-3.27473 v -1.49965 h -1.19992 -1.61437 -1.44333 -0.24236 -2.9993 v 1.49965 c 1.30239,0.0114 1.73903,0.32734 0.94878,1.49758 -1.96799,2.91431 -3.95724,5.81433 -5.94899,8.71265 V 100.0001 h -6.99957 -5.2e-4 z" /></g></svg>
